<?xml version="1.0" standalone="no"?>
<!DOCTYPE svg PUBLIC "-//W3C//DTD SVG 20010904//EN"
 "http://www.w3.org/TR/2001/REC-SVG-20010904/DTD/svg10.dtd">
<svg version="1.0" xmlns="http://www.w3.org/2000/svg"
 width="90.000000pt" height="90.000000pt" viewBox="0 0 90.000000 90.000000"
 preserveAspectRatio="xMidYMid meet">
<metadata>
Created by potrace 1.11, written by Peter Selinger 2001-2013
</metadata>
<g transform="translate(0.000000,90.000000) scale(0.100000,-0.100000)"
fill="#000000" stroke="none">
<path d="M90 722 c-59 -8 -60 -14 -60 -267 0 -212 2 -233 18 -248 17 -15 59
-17 395 -17 364 0 378 1 397 20 19 19 20 33 20 244 0 201 -2 226 -18 246 -18
22 -19 22 -373 24 -194 0 -365 -1 -379 -2z m87 -140 c6 -26 -9 -41 -36 -37
-17 2 -26 27 -17 50 8 23 46 13 53 -13z m112 14 c4 -3 8 -16 7 -28 -1 -17 -7
-23 -26 -23 -27 0 -40 19 -32 47 4 15 29 17 51 4z m120 4 c6 0 7 -15 2 -51 -1
-3 -13 -5 -28 -4 -23 1 -28 6 -28 26 -1 27 13 41 33 34 8 -3 17 -5 21 -5z
m121 -26 c0 -27 -3 -31 -27 -29 -21 1 -29 7 -31 24 -4 26 11 40 40 38 13 -1
18 -9 18 -33z m104 30 c10 -4 16 -18 16 -35 0 -25 -3 -28 -22 -25 -13 3 -26 5
-30 5 -13 2 -9 49 5 54 6 3 13 6 14 6 1 1 8 -2 17 -5z m120 0 c10 -4 16 -18
16 -35 0 -25 -3 -28 -22 -25 -13 3 -26 5 -30 5 -13 2 -9 49 5 54 6 3 13 6 14
6 1 1 8 -2 17 -5z m-518 -146 c1 -16 -2 -28 -5 -29 -3 -1 -30 -2 -58 -3 -51
-2 -53 -1 -53 24 0 15 2 29 5 31 2 3 28 5 57 4 51 0 53 -1 54 -27z m115 22 c0
-3 2 -15 5 -27 2 -13 1 -23 -4 -24 -4 0 -17 -2 -29 -3 -13 -2 -24 3 -24 11 -1
7 -2 19 -3 26 -1 6 3 15 8 19 11 7 46 6 47 -2z m120 2 c5 -42 4 -52 -5 -55
-34 -12 -68 22 -47 47 11 13 50 19 52 8z m122 -12 c7 -26 -6 -41 -37 -44 -22
-3 -26 0 -26 24 0 33 2 35 33 36 17 1 27 -4 30 -16z m177 -11 c0 -16 -6 -29
-12 -30 -7 -1 -34 -2 -60 -3 -45 -1 -48 0 -48 25 0 14 2 28 4 30 2 2 29 5 60
5 55 2 56 1 56 -27z m-592 -121 c3 -25 0 -28 -27 -28 -28 0 -31 3 -31 31 0 27
3 30 28 27 21 -2 28 -9 30 -30z m472 2 l0 -30 -72 0 c-359 -2 -352 -3 -341 40
4 15 24 17 209 18 l204 1 0 -29z m120 -2 c0 -24 -4 -28 -30 -28 -27 0 -30 3
-30 29 0 26 3 30 30 29 26 -1 30 -5 30 -30z"/>
</g>
</svg>
